<svg version="1.0" xmlns="http://www.w3.org/2000/svg"
 width="48.000000pt" height="48.000000pt" viewBox="0 0 48.000000 48.000000"
 preserveAspectRatio="xMidYMid meet">

<g transform="translate(0.000000,48.000000) scale(0.100000,-0.100000)"
fill="#000000" stroke="none">
<path d="M107 345 c-37 -31 -67 -59 -67 -64 0 -14 132 -122 144 -118 6 2 12
16 14 30 3 26 6 27 57 27 41 0 56 4 64 18 9 15 12 15 38 -11 l28 -28 -29 -25
c-25 -23 -29 -23 -40 -9 -8 11 -23 15 -41 13 -34 -4 -45 -27 -17 -35 13 -3 22
-15 24 -31 2 -14 8 -27 13 -29 12 -4 145 103 145 117 0 14 -131 121 -144 117
-6 -2 -12 -16 -14 -30 -3 -26 -6 -27 -57 -27 -41 0 -56 -4 -64 -17 -9 -16 -12
-16 -38 10 l-28 28 29 25 c25 23 29 23 40 9 8 -11 23 -15 41 -13 34 4 45 27
17 35 -13 3 -22 15 -24 31 -2 14 -8 27 -13 29 -6 2 -41 -22 -78 -52z"/>
</g>
</svg>
